<?xml version="1.0" encoding="utf-8"?>
<!-- Generator: Adobe Illustrator 15.1.0, SVG Export Plug-In . SVG Version: 6.00 Build 0)  -->
<!DOCTYPE svg PUBLIC "-//W3C//DTD SVG 1.1//EN" "http://www.w3.org/Graphics/SVG/1.1/DTD/svg11.dtd">
<svg version="1.1" id="Capa_1" xmlns="http://www.w3.org/2000/svg" xmlns:xlink="http://www.w3.org/1999/xlink" x="0px" y="0px"
	 width="70px" height="70px" viewBox="0 0 70 70" enable-background="new 0 0 70 70" xml:space="preserve">
<g>
	<defs>
		<rect id="SVGID_1_" x="13.184" y="57.426" width="8.488" height="6.741"/>
	</defs>
	<clipPath id="SVGID_2_">
		<use xlink:href="#SVGID_1_"  overflow="visible"/>
	</clipPath>
	
		<linearGradient id="SVGID_3_" gradientUnits="userSpaceOnUse" x1="-999.3428" y1="625.4473" x2="-998.0869" y2="625.4473" gradientTransform="matrix(6.758 0 0 -6.758 6766.7422 4287.5703)">
		<stop  offset="0" style="stop-color:#E75353"/>
		<stop  offset="0.9023" style="stop-color:#E75353"/>
		<stop  offset="1" style="stop-color:#E75353"/>
	</linearGradient>
	<rect x="13.184" y="57.426" clip-path="url(#SVGID_2_)" fill="url(#SVGID_3_)" width="8.488" height="6.741"/>
</g>
<path fill="#333333" d="M55.219,50.928c0-0.296-0.373-0.384-0.373-0.384c-3.733-0.693-7.215-3.289-9.854-6.05
	c-4.305-4.513-7.931-10.254-9.331-12.937c-0.415-0.964,0.179-1.067,0.179-1.067l-0.005-0.008c7.269-2.799,8.471-10.063,8.471-12.049
	c0-9.212-8.719-11.933-16.571-11.933c-2.967,0-3.957,0.248-7.047,0.248c-3.588,0-5.749-0.248-6.306-0.248
	c-0.497,0-0.806,0.432-0.806,0.929c0,2.227,5.068-1.548,5.068,5.874v29.611c0,6.863-4.82,4.947-4.82,6.616
	c0,0.559,0.619,0.742,0.987,0.742c1.794,0,3.833-0.245,6.739-0.245c3.649,0,4.578,0.245,6.68,0.245c1.545,0,1.79-0.31,1.79-0.742
	c0-2.1-6.488,1.112-6.488-7.79V10.52c0-1.856,1.361-1.856,3.34-1.856c7.107,0,12.737,3.958,12.86,11.439
	c0.081,5.069-3.714,9.885-10.017,9.885c-2.228,0-1.739-0.13-2.232-0.13c-0.309,0-0.62,0.124-0.62,0.556
	c0,0.564,0.458,0.857,0.994,1.012c0.694,0.301,2.285,0.556,3.944,3.104l0.005-0.001c4.214,6.903,8.959,17.25,19.774,17.25
	C55.626,51.776,55.219,51.292,55.219,50.928"/>
<g>
	<defs>
		<rect id="SVGID_4_" x="21.67" y="57.426" width="8.488" height="6.741"/>
	</defs>
	<clipPath id="SVGID_5_">
		<use xlink:href="#SVGID_4_"  overflow="visible"/>
	</clipPath>
	
		<linearGradient id="SVGID_6_" gradientUnits="userSpaceOnUse" x1="-999.1006" y1="625.4297" x2="-997.8447" y2="625.4297" gradientTransform="matrix(6.758 0 0 -6.758 6773.5938 4287.4531)">
		<stop  offset="0" style="stop-color:#DBDBDC"/>
		<stop  offset="1" style="stop-color:#DBDBDC"/>
	</linearGradient>
	<rect x="21.67" y="57.426" clip-path="url(#SVGID_5_)" fill="url(#SVGID_6_)" width="8.488" height="6.741"/>
</g>
<g>
	<defs>
		<rect id="SVGID_7_" x="30.157" y="57.426" width="8.489" height="6.741"/>
	</defs>
	<clipPath id="SVGID_8_">
		<use xlink:href="#SVGID_7_"  overflow="visible"/>
	</clipPath>
	
		<linearGradient id="SVGID_9_" gradientUnits="userSpaceOnUse" x1="-998.8315" y1="625.4473" x2="-997.5752" y2="625.4473" gradientTransform="matrix(6.758 0 0 -6.758 6780.2578 4287.5703)">
		<stop  offset="0" style="stop-color:#FDD300"/>
		<stop  offset="1" style="stop-color:#FDD300"/>
	</linearGradient>
	<rect x="30.157" y="57.426" clip-path="url(#SVGID_8_)" fill="url(#SVGID_9_)" width="8.489" height="6.741"/>
</g>
<rect x="38.646" y="57.427" fill="#79236A" width="8.49" height="6.74"/>
<rect x="47.133" y="57.427" fill="#CE2627" width="8.488" height="6.74"/>
</svg>
