<?xml version="1.0" encoding="utf-8"?>
<!-- Generator: Adobe Illustrator 15.1.0, SVG Export Plug-In . SVG Version: 6.00 Build 0)  -->
<!DOCTYPE svg PUBLIC "-//W3C//DTD SVG 1.1//EN" "http://www.w3.org/Graphics/SVG/1.1/DTD/svg11.dtd">
<svg version="1.1" id="Capa_1" xmlns="http://www.w3.org/2000/svg" xmlns:xlink="http://www.w3.org/1999/xlink" x="0px" y="0px"
	 width="70px" height="70px" viewBox="0 0 70 70" enable-background="new 0 0 70 70" xml:space="preserve">
<path fill="#8886BB" d="M35,6.5C19.074,6.5,6.116,19.458,6.116,35.385c0,6.586,2.24,12.645,5.967,17.51
	c4.911,6.413,12.432,10.702,20.975,11.275c0.644,0.044,1.287,0.1,1.942,0.1c0.657,0,1.299-0.056,1.943-0.1
	c8.541-0.573,16.061-4.863,20.975-11.275c3.725-4.865,5.966-10.924,5.966-17.51C63.884,19.458,50.926,6.5,35,6.5 M55.973,50.788
	C51.75,56.52,45.262,60.48,37.823,61.287c-0.928,0.099-1.868,0.158-2.823,0.158c-0.954,0-1.896-0.06-2.825-0.158
	c-7.438-0.807-13.927-4.765-18.147-10.499c-3.181-4.319-5.087-9.639-5.087-15.403C8.94,21.014,20.63,9.323,35,9.323
	c14.369,0,26.06,11.691,26.06,26.062C61.06,41.149,59.154,46.469,55.973,50.788"/>
<path fill="#8886BB" d="M21.423,51.758c0,0.798-0.654,1.45-1.451,1.45c-0.807-0.01-1.438-0.662-1.438-1.46
	c0-2.673,1.086-4.66,2.578-6.09c2.09-1.989,4.992-2.9,6.74-3.055c0.354-0.032,0.686-0.155,0.892-0.384
	c0.113-0.134,0.229-0.29,0.271-0.466c-1.4-1.13-2.01-2.693-2.549-4.008c-0.248-0.632-0.477-1.19-0.631-1.326l-0.012-0.021
	l-0.021-0.01c-0.621-0.569-1.47-1.625-1.927-2.828c-0.455-1.189-0.558-2.505,0.126-3.718c-0.364-1.067-0.55-2.288-0.571-3.53
	c-0.02-1.575,0.25-3.201,0.747-4.66l0.05-0.104c0.716-2.082,1.896-3.596,3.43-4.621c1.657-1.097,3.688-1.635,5.965-1.677
	c0.84-0.01,2.01-0.02,3.138,0.176c1.273,0.229,2.496,0.735,3.263,1.792c1.531-0.145,2.869,0.714,3.925,1.936
	c1.273,1.491,2.196,3.676,2.402,4.95c0.134,0.964,0.134,1.978,0.021,3.013c-0.112,0.829-0.3,1.699-0.568,2.57
	c0.798,1.24,0.704,2.629,0.229,3.861c-0.458,1.214-1.306,2.27-1.896,2.827l-0.022,0.021l-0.05,0.021h0.01
	c-0.146,0.146-0.373,0.694-0.623,1.346c-0.516,1.275-1.138,2.807-2.463,3.937c0.02,0.187,0.113,0.372,0.258,0.518
	c0.239,0.229,0.539,0.362,0.901,0.395c1.739,0.144,4.65,1.035,6.731,3.044c1.512,1.43,2.59,3.417,2.59,6.09
	c0,0.808-0.645,1.46-1.46,1.46c-0.798-0.01-1.451-0.662-1.451-1.46c0-1.739-0.694-3.045-1.688-3.998
	c-1.542-1.472-3.688-2.134-4.973-2.247c-1.056-0.072-2.007-0.528-2.691-1.222c-0.787-0.787-1.925-3.657-0.455-4.566
	c1.025-0.622,1.543-1.949,1.989-3.045c0.392-0.996,0.745-1.834,1.387-2.405h0.021v-0.02c0.362-0.342,0.89-0.995,1.159-1.72
	c0.196-0.516,0.25-1.077-0.082-1.459c-0.384-0.405-0.518-1.182-0.331-1.71c0.289-0.922,0.497-1.781,0.58-2.589
	c0.093-0.788,0.093-1.512,0-2.195c-0.146-0.901-0.789-2.434-1.739-3.5c-0.499-0.601-1.037-1.014-1.492-0.953
	c-0.498,0.071-0.994,0-1.46-0.208c-0.386-0.187-0.747-0.476-1.015-0.85l-0.095-0.124c-0.206-0.332-0.796-0.527-1.43-0.663
	c-0.869-0.145-1.843-0.134-2.547-0.114c-1.739,0.031-3.23,0.404-4.412,1.191c-1.014,0.663-1.801,1.698-2.299,3.127l-0.051,0.125
	c-0.384,1.14-0.6,2.445-0.58,3.685c0,1.099,0.196,2.156,0.558,3.035c0.156,0.29,0.219,0.632,0.156,0.983
	c-0.156,0.954-0.942,0.974-0.476,2.216c0.279,0.725,0.787,1.347,1.16,1.699l0.039,0.041l0.022,0.022
	c0.642,0.569,0.974,1.428,1.356,2.382c0.435,1.096,0.984,2.434,1.988,3.064c0.455,0.249,0.777,0.727,0.777,1.273
	c0,1.254-0.186,2.34-1.129,3.273c-0.704,0.693-1.656,1.149-2.715,1.231v-0.01c-1.271,0.113-3.439,0.775-4.969,2.247
	C22.147,48.703,21.423,50.009,21.423,51.758"/>
</svg>
