<svg width="1150" height="400" xmlns="http://www.w3.org/2000/svg">

 <g>
  <title>background</title>
  <rect fill="none" id="canvas_background" height="402" width="1152" y="-1" x="-1"/>
 </g>
 <g>
  <title>Layer 1</title>
  <path id="svg_1" fill="#1f70c1" d="m0,0l0,27.367l194.64844,0l0,-27.367l-194.64844,0zm222.22657,0l0,27.367l277.3828,0c-0.00001,0 -28.33312,-27.367 -65.85937,-27.367l-211.52343,0zm331.79687,0l0,27.367l167.8125,0l-9.96094,-27.367l-157.85156,0zm288.125,0l-9.96094,27.367l166.28906,0l0,-27.367l-156.32812,0zm-842.14844,53.22221l0,27.36699l194.64844,0l0,-27.36699l-194.64844,0zm222.22657,0.03877l0,27.32822l309.57031,0c0,0.00001 -3.61563,-21.06281 -9.92188,-27.32822l-299.64843,0zm331.79687,0l0,27.32822l186.21094,0l-9.21876,-27.32822l-176.99218,0zm268.20312,0l-9.21875,27.32822l185.46875,0l0,-27.32822l-176.25,0zm-766.28906,53.18344l0,27.40575l84.29687,0l0,-27.40575l-84.29687,0zm222.22657,0l0,27.40575l84.29686,0l0,-27.40575l-84.29686,0zm166.28906,0l0,27.40575l84.29687,0c0.00001,0 5.35156,-14.47302 5.35156,-27.40575l-89.64843,0zm165.50781,0l0,27.40575l149.45313,0l-9.96094,-27.40575l-139.49219,0zm193.90625,0l-10,27.40575l150.19531,0l0,-27.40575l-140.19531,0zm-747.92969,53.26098l0,27.36698l84.29687,0l0,-27.36698l-84.29687,0zm222.22657,0l0,27.36698l215.3125,0c0.00001,-0.00001 18.01124,-14.04228 23.74999,-27.36698l-239.06249,0zm331.79687,0l0,27.36698l84.29687,0l0,-15.23403l5.35156,15.23403l154.41407,0l5.74219,-15.23403l0,15.23403l84.29687,0l0,-27.36698l-158.24219,0l-8.39844,23.18053l-8.43749,-23.18053l-159.02344,0zm-554.02344,53.22221l0,27.36698l84.29687,0l0,-27.36698l-84.29687,0zm222.22657,0l0,27.36698l239.06249,0c-5.73999,-13.28128 -23.74999,-27.36698 -23.74999,-27.36698l-215.3125,0zm331.79687,0l0,27.36698l84.29687,0l0,-27.36698l-84.29687,0zm99.60937,0l10.19532,27.36698l115.78125,0l9.6875,-27.36698l-135.66407,0zm150.19532,0l0,27.36698l84.29687,0l0,-27.36698l-84.29687,0zm-803.82813,53.22221l0,27.36698l84.29687,0l0,-27.36698l-84.29687,0zm222.22657,0l0,27.36698l84.29686,0l0,-27.36698l-84.29686,0zm166.28906,0l0,27.36698l89.64843,0c0.00002,-12.91533 -5.35156,-27.36698 -5.35156,-27.36698l-84.29687,0zm165.50781,0l0,27.36698l84.29687,0l0,-27.36698l-84.29687,0zm118.74999,0l9.88282,27.36698l77.61718,0l9.96094,-27.36698l-97.46094,0zm131.0547,0l0,27.36698l84.29687,0l0,-27.36698l-84.29687,0zm-858.2422,53.22221l0,27.40575l194.64844,0l0,-27.40575l-194.64844,0zm220.70314,0l0,27.40575l299.64843,0c6.30625,-6.27533 9.92188,-27.40575 9.92188,-27.40575l-309.57031,0zm333.3203,0l0,27.40575l138.71094,0l0,-27.40575l-138.71094,0zm192.34375,0l10.15625,27.40575l39.49219,0l9.53125,-27.40575l-59.17969,0zm111.87501,0l0,27.40575l140.23437,0l0,-27.40575l-140.23437,0zm-858.2422,53.26097l0,27.367l194.64844,0l0,-27.367l-194.64844,0zm220.70314,0l0,27.32824l211.52343,0c37.52624,-0.00002 65.85937,-27.32824 65.85937,-27.32824l-277.3828,0zm333.3203,0l0,27.367l138.71094,0l0,-27.367l-138.71094,0zm211.60157,0l9.76563,27.28946l1.67968,0.03878l9.92188,-27.32824l-21.36719,0zm92.61719,0l0,27.367l140.23437,0l0,-27.367l-140.23437,0z"/>
 </g>
</svg>