<?xml version="1.0" encoding="utf-8"?>
<!-- Generator: Adobe Illustrator 15.1.0, SVG Export Plug-In . SVG Version: 6.00 Build 0)  -->
<!DOCTYPE svg PUBLIC "-//W3C//DTD SVG 1.1//EN" "http://www.w3.org/Graphics/SVG/1.1/DTD/svg11.dtd">
<svg version="1.1" id="Capa_1" xmlns="http://www.w3.org/2000/svg" xmlns:xlink="http://www.w3.org/1999/xlink" x="0px" y="0px"
	 width="24px" height="24px" viewBox="0 0 24 24" enable-background="new 0 0 24 24" xml:space="preserve">
<path fill="#A8A8A8" d="M12,2c1.104,0,2,0.897,2,2v7c0,1.103-0.896,2-2,2c-1.103,0-2-0.897-2-2V4C10,2.897,10.897,2,12,2z M12,0
	C9.791,0,8,1.791,8,4v7c0,2.209,1.791,4,4,4s4-1.791,4-4V4C16,1.791,14.209,0,12,0z M20,9v2c0,4.418-3.582,8-8,8s-8-3.582-8-8V9h2v2
	c0,3.309,2.691,6,6,6c3.309,0,6-2.691,6-6V9H20z M13,22v-2h-2v2H7v2h10v-2H13z"/>
</svg>
