<?xml version="1.0" encoding="utf-8"?>
<!-- Generator: Adobe Illustrator 15.1.0, SVG Export Plug-In . SVG Version: 6.00 Build 0)  -->
<!DOCTYPE svg PUBLIC "-//W3C//DTD SVG 1.1//EN" "http://www.w3.org/Graphics/SVG/1.1/DTD/svg11.dtd">
<svg version="1.1" id="Capa_1" xmlns="http://www.w3.org/2000/svg" xmlns:xlink="http://www.w3.org/1999/xlink" x="0px" y="0px"
	 width="235.42px" height="82.574px" viewBox="0 0 235.42 82.574" enable-background="new 0 0 235.42 82.574" xml:space="preserve">
<rect x="170.494" y="60.958" fill="#C3C6C8" width="6.604" height="19.679"/>
<rect x="51.621" y="60.958" fill="#682666" width="16.523" height="19.679"/>
<rect x="11.832" y="60.958" fill="#682666" width="3.307" height="19.679"/>
<rect x="15.146" y="60.958" fill="#FFCE00" width="9.916" height="19.679"/>
<rect x="35.144" y="60.958" fill="#E73E51" width="9.916" height="19.679"/>
<rect x="28.359" y="60.958" fill="#C3C6C8" width="6.801" height="19.679"/>
<rect x="68.08" y="60.958" fill="#CF0A2C" width="6.609" height="19.679"/>
<rect x="1.927" y="60.958" fill="#CF0A2C" width="9.889" height="19.679"/>
<rect x="196.955" y="60.958" fill="#682666" width="9.916" height="19.679"/>
<rect x="74.676" y="60.958" fill="#C3C6C8" width="9.914" height="19.679"/>
<rect x="84.56" y="60.958" fill="#CF0A2C" width="9.926" height="19.679"/>
<rect x="94.49" y="60.958" fill="#682666" width="3.307" height="19.679"/>
<rect x="45.033" y="60.958" fill="#FFCE00" width="6.615" height="19.679"/>
<rect x="177.099" y="60.958" fill="#FFFFFF" width="3.309" height="19.679"/>
<rect x="101.117" y="60.958" fill="#FFCE00" width="9.916" height="19.679"/>
<rect x="140.753" y="60.958" fill="#C3C6C8" width="3.305" height="19.679"/>
<rect x="111.006" y="60.958" fill="#682666" width="9.92" height="19.679"/>
<rect x="120.926" y="60.958" fill="#E73E51" width="6.613" height="19.679"/>
<rect x="127.526" y="60.958" fill="#CF0A2C" width="3.31" height="19.679"/>
<rect x="130.854" y="60.958" fill="#FFCE00" width="9.914" height="19.679"/>
<rect x="144.033" y="60.958" fill="#FFFFFF" width="3.305" height="19.679"/>
<rect x="97.803" y="60.958" fill="#FFFFFF" width="3.311" height="19.679"/>
<rect x="25.043" y="60.958" fill="#FFFFFF" width="3.309" height="19.679"/>
<rect x="153.946" y="60.958" fill="#CF0A2C" width="16.531" height="19.679"/>
<rect x="147.338" y="60.958" fill="#682666" width="6.611" height="19.679"/>
<rect x="180.396" y="60.958" fill="#E73E51" width="9.92" height="19.679"/>
<rect x="190.33" y="60.958" fill="#FFCE00" width="6.608" height="19.679"/>
<rect x="206.853" y="60.958" fill="#CF0A2C" width="6.572" height="19.679"/>
<rect x="1.937" y="1.937" width="211.477" height="59.061"/>
<g>
	<g>
		<g>
			<g>
				<g>
					<defs>
						<rect id="SVGID_1_" width="235.42" height="82.574"/>
					</defs>
					<clipPath id="SVGID_2_">
						<use xlink:href="#SVGID_1_"  overflow="visible"/>
					</clipPath>
					<path clip-path="url(#SVGID_2_)" fill="#FFFFFF" d="M58.363,24.134c-0.033-1.99-2.211-1.445-2.211-2.041
						c0-0.248,0.055-0.305,0.277-0.305c1.004,0,1.985,0.11,2.991,0.11c0.843,0,1.693-0.11,2.533-0.11
						c0.437,0,0.519,0.057,0.519,0.276c0,0.656-1.963,0.029-1.963,2.07v14.621c0,1.848,2.424,1.227,2.424,2.039
						c0,0.194-0.082,0.276-0.543,0.276c-0.627,0-1.797-0.11-2.97-0.11c-1.659,0-2.233,0.11-2.62,0.11
						c-0.488,0-0.564-0.131-0.564-0.413c0-0.789,2.127,0.11,2.127-2.585V24.134z"/>
				</g>
			</g>
		</g>
	</g>
	<g>
		<g>
			<g>
				<g>
					<defs>
						<rect id="SVGID_3_" width="235.42" height="82.574"/>
					</defs>
					<clipPath id="SVGID_4_">
						<use xlink:href="#SVGID_3_"  overflow="visible"/>
					</clipPath>
					<path clip-path="url(#SVGID_4_)" fill="#FFFFFF" d="M86.377,37.318c0,3.914,2.861,2.5,2.861,3.42
						c0,0.201-0.113,0.332-0.793,0.332c-0.929,0-1.336-0.109-2.937-0.109c-1.287,0-2.184,0.109-2.975,0.109
						c-0.164,0-0.437-0.082-0.437-0.332c0-0.729,2.125,0.109,2.125-2.904V24.793c0-3.272-2.233-1.614-2.233-2.59
						c0-0.221,0.135-0.414,0.356-0.414c0.244,0,1.203,0.109,2.777,0.109c1.358,0,1.797-0.109,3.108-0.109
						c3.455,0,7.296,1.201,7.296,5.254c0,1.091-0.82,5.232-6.615,5.232c-0.279,0-1.855-0.135-1.855-0.621
						c0-0.203,0.136-0.254,0.273-0.254c0.217,0,0.793,0.172,1.77,0.172c2.775,0,4.408-1.338,4.408-3.791
						c0-3.291-2.533-5.033-5.656-5.033c-0.879,0-1.473,0-1.473,0.818V37.318L86.377,37.318z"/>
				</g>
			</g>
		</g>
	</g>
	<g>
		<g>
			<g>
				<g>
					<defs>
						<rect id="SVGID_5_" width="235.42" height="82.574"/>
					</defs>
					<clipPath id="SVGID_6_">
						<use xlink:href="#SVGID_5_"  overflow="visible"/>
					</clipPath>
					<path clip-path="url(#SVGID_6_)" fill="#FFFFFF" d="M116.385,37.718c0,1.609-0.221,2.264,2.064,2.264
						c6.291,0,7.219-2.811,7.573-2.811c0.188,0,0.218,0.277,0.218,0.326c0,0.983-0.706,1.938-1.361,2.645
						c-0.873,0.976-1.47,0.928-2.672,0.928c-2.069,0-4.137-0.168-6.204-0.11c-1.086,0.028-2.238,0.11-3.328,0.11
						c-0.24,0-0.4-0.053-0.4-0.276c0.045-0.324,0.324-0.269,1.195-0.703c0.707-0.33,0.764-1.09,0.764-2.373V23.917
						c0-1.416-2.284-1.228-2.284-1.773c0-0.299,0.186-0.356,0.536-0.356c0.574,0,1.42,0.11,2.75,0.11c1.556,0,2.208-0.11,2.621-0.11
						c0.35,0,0.516,0.057,0.516,0.381c0,0.627-1.988-0.055-1.988,2.32V37.718z"/>
				</g>
			</g>
		</g>
	</g>
	<g>
		<g>
			<g>
				<g>
					<defs>
						<rect id="SVGID_7_" width="235.42" height="82.574"/>
					</defs>
					<clipPath id="SVGID_8_">
						<use xlink:href="#SVGID_7_"  overflow="visible"/>
					</clipPath>
					<path clip-path="url(#SVGID_8_)" fill="#FFFFFF" d="M148.457,29.714c0,0.924-0.06,0.924,1.033,0.924h2.938
						c2.825,0,2.1-2.176,2.75-2.176c0.221,0,0.299,0.299,0.299,0.516c0,0.955-0.056,1.881-0.056,2.754
						c0,0.705,0.056,1.416,0.056,2.144c0,0.248-0.104,0.361-0.299,0.361c-0.847,0,0.075-2.396-2.211-2.396h-4.025
						c-0.567,0-0.485,0.459-0.485,0.875v5.002c0,1.609-0.222,2.264,2.065,2.264c6.289,0,7.22-2.811,7.572-2.811
						c0.188,0,0.213,0.277,0.213,0.326c0,0.983-0.707,1.938-1.361,2.645c-0.87,0.976-1.469,0.927-2.665,0.927
						c-2.066,0-4.14-0.167-6.21-0.109c-1.094,0.027-2.229,0.109-3.317,0.109c-0.246,0-0.409-0.052-0.409-0.275
						c0.053-0.324,0.329-0.269,1.194-0.703c0.711-0.33,0.765-1.09,0.765-2.373v-12.41c0-1.227,0-2.535-1.472-2.752
						c-0.22-0.055-0.815-0.113-0.815-0.442c0-0.216,0.164-0.326,0.955-0.326c5.146,0,6.563,0.11,7.705,0.11
						c0.541,0,3.047-0.11,3.896-0.11c0.211,0,0.266,0.276,0.266,0.606c0,3.015-0.373,3.238-0.543,3.238
						c-0.648,0-0.219-1.311-0.648-1.936c-0.707-0.923-3.543-0.757-4.631-0.757c-2.617,0-2.559-0.114-2.559,1.709L148.457,29.714
						L148.457,29.714z"/>
				</g>
			</g>
		</g>
	</g>
	<g>
		<g>
			<g>
				<g>
					<defs>
						<rect id="SVGID_9_" width="235.42" height="82.574"/>
					</defs>
					<clipPath id="SVGID_10_">
						<use xlink:href="#SVGID_9_"  overflow="visible"/>
					</clipPath>
					<path clip-path="url(#SVGID_10_)" fill="#FFFFFF" d="M192.396,21.199c-1.098,0-2.506,0.348-3.545,1.262
						c-1.939,1.705-3.244,4.549-3.996,6.367c-0.236,0.621-0.479,0.809-0.604,0.809c-0.166,0-0.334-0.163-0.553-0.493l-2.896-4.683
						c-0.166-0.246-0.484-0.68-0.484-1.117c0-0.788,1.279-0.815,1.279-1.28c0-0.244-0.336-0.275-0.521-0.275
						c-0.271,0-1.006,0.109-1.903,0.109c-1.854,0-2.372-0.109-3.104-0.109c-0.19,0-0.354,0.222-0.354,0.414
						c0,0.459,1.336,0.133,2.039,1.307l4.548,7.269c0.224,0.326,0.63,0.875,0.63,1.385v6.592c0,1.935-2.096,1.226-2.096,1.982
						c0,0.305,0.168,0.332,0.405,0.332c0.245,0,1.227-0.109,2.452-0.109c1.012,0,2.584,0.109,2.994,0.109
						c0.379,0,0.625-0.027,0.625-0.275c0-0.838-2.229-0.08-2.229-2.45V31.83c0.55-1.641,1.688-4.317,3.384-6.438
						c1.329-1.666,2.898-2.963,5.002-3.681c0.151-0.057,0.27-0.127,0.27-0.268C193.729,21.185,192.396,21.199,192.396,21.199"/>
				</g>
			</g>
		</g>
	</g>
	<g>
		<g>
			<g>
				<g>
					<defs>
						<rect id="SVGID_11_" width="235.42" height="82.574"/>
					</defs>
					<clipPath id="SVGID_12_">
						<use xlink:href="#SVGID_11_"  overflow="visible"/>
					</clipPath>
					<path clip-path="url(#SVGID_12_)" fill="#FFFFFF" d="M39.912,41.359c0-0.135-0.166-0.176-0.166-0.176
						c-1.639-0.301-3.174-1.445-4.336-2.66c-1.9-1.986-3.494-4.516-4.111-5.695c-0.188-0.42,0.078-0.473,0.078-0.473v-0.004
						c3.203-1.228,3.726-4.43,3.726-5.308c0-4.053-3.837-5.254-7.296-5.254c-1.303,0-1.741,0.108-3.1,0.108
						c-1.582,0-2.529-0.108-2.781-0.108c-0.213,0-0.354,0.192-0.354,0.413c0,0.977,2.233-0.681,2.233,2.59v13.042
						c0,3.012-2.123,2.174-2.123,2.904c0,0.249,0.273,0.331,0.437,0.331c0.791,0,1.686-0.109,2.961-0.109
						c1.613,0,2.023,0.109,2.949,0.109c0.68,0,0.785-0.13,0.785-0.331c0-0.921-2.857,0.494-2.857-3.42V23.566
						c0-0.818,0.598-0.818,1.467-0.818c3.136,0,5.615,1.742,5.664,5.033c0.041,2.234-1.631,4.354-4.41,4.354
						c-0.975,0-0.764-0.059-0.987-0.059c-0.133,0-0.267,0.055-0.267,0.243c0,0.255,0.203,0.383,0.439,0.445
						c0.307,0.135,1.006,0.243,1.736,1.374c1.858,3.033,3.946,7.593,8.71,7.593C40.088,41.732,39.912,41.519,39.912,41.359"/>
				</g>
			</g>
		</g>
	</g>
	<g>
		<g>
			<g>
				<g>
					<defs>
						<rect id="SVGID_13_" width="235.42" height="82.574"/>
					</defs>
					<clipPath id="SVGID_14_">
						<use xlink:href="#SVGID_13_"  overflow="visible"/>
					</clipPath>
					<path clip-path="url(#SVGID_14_)" fill="#FFFFFE" d="M213.414,80.636H1.938V1.937h211.477L213.414,80.636L213.414,80.636z
						 M215.353,0h-1.938H1.938H0v1.937v78.699v1.938h1.937h211.477h1.938v-1.938V1.937V0L215.353,0z"/>
				</g>
			</g>
		</g>
	</g>
	<g>
		<g>
			<g>
				<g>
					<defs>
						<rect id="SVGID_15_" width="235.42" height="82.574"/>
					</defs>
					<clipPath id="SVGID_16_">
						<use xlink:href="#SVGID_15_"  overflow="visible"/>
					</clipPath>
					<path clip-path="url(#SVGID_16_)" fill="#FFFFFF" d="M231.049,69.682c0-0.604,0.214-1.121,0.636-1.552
						c0.424-0.426,0.938-0.644,1.543-0.644c0.605,0,1.123,0.218,1.551,0.644c0.431,0.431,0.646,0.947,0.646,1.552
						c0,0.605-0.215,1.121-0.646,1.549c-0.428,0.434-0.942,0.646-1.551,0.646c-0.604,0-1.119-0.213-1.543-0.646
						C231.263,70.803,231.049,70.287,231.049,69.682"/>
				</g>
			</g>
		</g>
	</g>
	<g>
		<g>
			<g>
				<g>
					<defs>
						<rect id="SVGID_17_" width="235.42" height="82.574"/>
					</defs>
					<clipPath id="SVGID_18_">
						<use xlink:href="#SVGID_17_"  overflow="visible"/>
					</clipPath>
					<path clip-path="url(#SVGID_18_)" fill="#FFFFFF" d="M222.908,48.889l1.745,3.174c-0.625,0.6-1.057,1.188-1.299,1.771
						c-0.242,0.584-0.362,1.27-0.362,2.049c0,1.43,0.426,2.58,1.274,3.461c0.853,0.883,1.938,1.32,3.271,1.32
						c1.291,0,2.347-0.428,3.164-1.271c0.817-0.851,1.228-1.961,1.228-3.343c0-1.707-0.582-3.032-1.746-3.983l2.062-3.006
						c2.117,1.629,3.178,3.931,3.178,6.897c0,2.672-0.791,4.765-2.373,6.274c-1.584,1.515-3.438,2.271-5.56,2.271
						c-1.472,0-2.825-0.367-4.062-1.104c-1.236-0.735-2.211-1.763-2.92-3.08c-0.707-1.314-1.062-2.787-1.062-4.42
						c0-1.508,0.304-2.859,0.898-4.062C220.944,50.634,221.8,49.652,222.908,48.889"/>
				</g>
			</g>
		</g>
	</g>
	<g>
		<g>
			<g>
				<g>
					<defs>
						<rect id="SVGID_19_" width="235.42" height="82.574"/>
					</defs>
					<clipPath id="SVGID_20_">
						<use xlink:href="#SVGID_19_"  overflow="visible"/>
					</clipPath>
					<path clip-path="url(#SVGID_20_)" fill="#FFFFFF" d="M219.444,38.318c0-1.433,0.354-2.781,1.074-4.042
						c0.719-1.261,1.688-2.246,2.92-2.954c1.229-0.707,2.556-1.062,3.979-1.062c1.436,0,2.773,0.356,4.021,1.068
						c1.248,0.713,2.224,1.683,2.927,2.912c0.702,1.229,1.055,2.583,1.055,4.064c0,2.178-0.774,4.038-2.325,5.577
						c-1.55,1.541-3.433,2.312-5.646,2.312c-2.375,0-4.354-0.871-5.938-2.611C220.134,42.057,219.444,40.301,219.444,38.318
						 M223.033,38.256c0,1.184,0.411,2.17,1.235,2.958c0.82,0.788,1.879,1.183,3.162,1.183c1.319,0,2.394-0.39,3.213-1.167
						c0.815-0.779,1.229-1.765,1.229-2.958c0-1.194-0.414-2.187-1.242-2.98c-0.831-0.792-1.896-1.188-3.199-1.188
						s-2.357,0.388-3.176,1.168C223.44,36.048,223.033,37.043,223.033,38.256"/>
				</g>
			</g>
		</g>
	</g>
	<g>
		<g>
			<g>
				<g>
					<defs>
						<rect id="SVGID_21_" width="235.42" height="82.574"/>
					</defs>
					<clipPath id="SVGID_22_">
						<use xlink:href="#SVGID_21_"  overflow="visible"/>
					</clipPath>
					<path clip-path="url(#SVGID_22_)" fill="#FFFFFF" d="M219.836,27.175v-3.812h1.746c-0.717-0.652-1.252-1.377-1.604-2.172
						c-0.354-0.797-0.533-1.665-0.533-2.607c0-0.95,0.234-1.807,0.699-2.571c0.465-0.764,1.146-1.379,2.039-1.845
						c-0.894-0.605-1.574-1.348-2.039-2.228s-0.699-1.843-0.699-2.886c0-1.08,0.257-2.03,0.759-2.851
						c0.502-0.819,1.153-1.409,1.969-1.767c0.812-0.359,2.127-0.538,3.951-0.538h8.905v3.84h-7.709
						c-1.719,0-2.885,0.214-3.493,0.642c-0.609,0.429-0.914,1.07-0.914,1.927c0,0.652,0.188,1.236,0.562,1.753
						c0.37,0.516,0.887,0.9,1.543,1.151c0.653,0.252,1.711,0.377,3.159,0.377h6.854v3.841h-7.355c-1.357,0-2.344,0.1-2.951,0.301
						c-0.608,0.2-1.063,0.501-1.361,0.902c-0.299,0.401-0.445,0.887-0.445,1.456c0,0.635,0.188,1.211,0.564,1.729
						s0.902,0.905,1.584,1.162c0.682,0.255,1.75,0.384,3.211,0.384h6.761v3.812H219.836z"/>
				</g>
			</g>
		</g>
	</g>
</g>
</svg>
